# xmcd CD database file
#
# Track frame offsets:
#	150
#	32790
#	64977
#	84725
#	137774
#	173452
#	225000
#
# Disc length: 3719 seconds
#
# Revision: 0
# Processed by: cddbd v1.5.2PL0 Copyright (c) Steve Scherf et al.
# Submitted via: CDex 1.51
#
DISCID=4e0e8507
DTITLE=Jon Hassell - Maarifa Street
DYEAR=1900
DGENRE=Jazz
TTITLE0=Divine S.O.S.
TTITLE1=Maarifa Street
TTITLE2=Warm Shift
TTITLE3=Open Secret (Paris)
TTITLE4=New Gods
TTITLE5=Darbari Bridge
TTITLE6=Open Secret (Milano)
EXTD=
EXTT0=
EXTT1=
EXTT2=
EXTT3=
EXTT4=
EXTT5=
EXTT6=
PLAYORDER=
